<svg xmlns="http://www.w3.org/2000/svg" xmlns:xlink="http://www.w3.org/1999/xlink" width="513" height="40" viewBox="0 0 513 40">
  <defs>
    <clipPath id="clip-path">
      <rect id="Rectangle_6604" data-name="Rectangle 6604" width="61.824" height="22.103" fill="none"/>
    </clipPath>
    <clipPath id="clip-path-2">
      <rect id="Rectangle_6607" data-name="Rectangle 6607" width="61.298" height="20.403" fill="none"/>
    </clipPath>
    <clipPath id="clip-path-3">
      <rect id="Rectangle_6608" data-name="Rectangle 6608" width="61.008" height="25.008" fill="none"/>
    </clipPath>
    <clipPath id="clip-path-4">
      <rect id="Rectangle_6609" data-name="Rectangle 6609" width="61.824" height="20.03" fill="none"/>
    </clipPath>
    <clipPath id="clip-path-5">
      <rect id="Rectangle_6610" data-name="Rectangle 6610" width="66.02" height="21.296" fill="none"/>
    </clipPath>
    <clipPath id="clip-path-6">
      <rect id="Rectangle_6613" data-name="Rectangle 6613" width="50.34" height="20.142" transform="translate(0 0)" fill="none"/>
    </clipPath>
  </defs>
  <g id="logos" transform="translate(-1265 -3938)">
    <g id="سداد">
      <g id="Group_6553" data-name="Group 6553" transform="translate(1502.069 3946.434)">
        <g id="Group_6552" data-name="Group 6552" clip-path="url(#clip-path)">
          <path id="Path_2409" data-name="Path 2409" d="M232.93,5.134h-3.153c-1.484,4.173-4.019,11.036-5.409,14.838a4.769,4.769,0,0,1-.526,1.051h2.19a1.674,1.674,0,0,0,1.395-.9c.031-.092.092-.154.123-.248l1.329-3.616c1.639-4.508,3.839-10.6,4.05-11.122" transform="translate(-207.86 -5.133)" fill="#fff"/>
          <path id="Path_2410" data-name="Path 2410" d="M265.7,12.207l-1.329,3.648a1.719,1.719,0,0,1-1.577,1.112h-2.2a5.368,5.368,0,0,0,.557-1.112l1.329-3.616h-3.154L258,15.854a1.7,1.7,0,0,1-1.513,1.116H254.3a5.369,5.369,0,0,0,.557-1.112l1.329-3.616h-3.158L251.7,15.858a1.7,1.7,0,0,1-1.515,1.112H240.014a5.368,5.368,0,0,0,.557-1.112l.309-.922c.9-2.411-.371-4.3-2.721-4.3h-3.614l-1.175,3.153h3.616A.743.743,0,0,1,237.7,14.9l-.371.922a1.7,1.7,0,0,1-1.515,1.112h-5.227l-1.112,3.087h32.21a6.679,6.679,0,0,0,5.811-4.265l1.329-3.648Z" transform="translate(-207 -4.292)" fill="#fff"/>
          <path id="Path_2411" data-name="Path 2411" d="M218.387,20.17h-8.408l1.175-3.153h8.378a1.878,1.878,0,0,0,1.576-1.118l.309-.922a.74.74,0,0,0-.262-1.013.73.73,0,0,0-.45-.1h-5.223l1.175-3.153h5.225c2.381,0,3.616,1.916,2.721,4.3l-.309.9a7.009,7.009,0,0,1-5.9,4.265" transform="translate(-209.979 -4.281)" fill="#fff"/>
          <path id="Path_2412" data-name="Path 2412" d="M229.57,22.08H229.2l-.154.4h.371Z" transform="translate(-207.065 -2.543)" fill="#fff"/>
          <path id="Path_2413" data-name="Path 2413" d="M230.575,23.2a.665.665,0,0,1-.278.371,1.921,1.921,0,0,1-.4.092h-.958a1.055,1.055,0,0,1-.495-.123c-.123-.092-.123-.278-.031-.526l.248-.587h-.4l-.248.587c-.248.68,0,1.051.772,1.051h1.3a.837.837,0,0,0,.772-.557l.4-1.051h-.371Z" transform="translate(-207.237 -2.49)" fill="#fff"/>
          <path id="Path_2414" data-name="Path 2414" d="M230.16,22.08h-.4l-.123.4h.371Z" transform="translate(-206.975 -2.543)" fill="#fff"/>
          <path id="Path_2415" data-name="Path 2415" d="M232.652,23.316a.863.863,0,0,1,.248-.371.451.451,0,0,1,.371-.154.246.246,0,0,1,.278.209.231.231,0,0,1,0,.069l.4-.154a.508.508,0,0,0-.495-.495h-.037a1.084,1.084,0,0,0-.68.248,2.258,2.258,0,0,0-.495.587,1.556,1.556,0,0,0-.092.4H231.5a.312.312,0,0,1-.278-.092c-.031-.031-.031-.154,0-.371l.557-1.515h-.4l-.587,1.669a.554.554,0,0,0-.031.495.5.5,0,0,0,.4.186h2.318l.123-.4h-.989a.368.368,0,0,1,.031-.309" transform="translate(-206.809 -2.604)" fill="#fff"/>
          <path id="Path_2416" data-name="Path 2416" d="M237.212,21.732h-.371l-.154.4h.371Z" transform="translate(-205.897 -2.596)" fill="#fff"/>
          <path id="Path_2417" data-name="Path 2417" d="M237.179,22.322a1.256,1.256,0,0,0-1.112.807.678.678,0,0,0-.031.432h-.989l.154-.4c.154-.432,0-.807-.432-.807a1.133,1.133,0,0,0-1.081.772c-.154.495.031.807.495.807h.371s-.278.309-.495.309l-.123.309c.432.031.989-.557.989-.557h1.669a1.213,1.213,0,0,0,1.081-.807c.154-.495,0-.835-.495-.835m-2.5,1.206h-.368c-.186,0-.278-.186-.186-.432a.558.558,0,0,1,.526-.4c.186,0,.278.154.186.371Zm2.075.092c-.248,0-.309-.186-.248-.495a.594.594,0,0,1,.557-.432c.248,0,.309.186.248.495a.683.683,0,0,1-.557.432" transform="translate(-206.364 -2.506)" fill="#fff"/>
          <path id="Path_2418" data-name="Path 2418" d="M243.992,23.309c-.031.092-.092.154-.123.248a.376.376,0,0,1-.278.123h-.9a1.209,1.209,0,0,0,.248-.432l.557-1.515h-.4l-.557,1.515a.814.814,0,0,1-.155.278.361.361,0,0,1-.309.123h-.588l.031-.123a.657.657,0,0,0,0-.587.53.53,0,0,0-.495-.248,1.084,1.084,0,0,0-.68.248,1.327,1.327,0,0,0-.432.587c0,.031-.031.186-.031.186h-.807c.248-.68.123-1.081-.309-1.237a.565.565,0,0,0-.186-.031h-.4l-.154.4a1.544,1.544,0,0,1,.371.031c.371.092.432.371.278.9h-1.3l-.154.309h2.69a.521.521,0,0,0,.526.278,1.388,1.388,0,0,0,.772-.278h2.381a.836.836,0,0,0,.835-.649l.587-1.669h-.4Zm-3.091.618a.4.4,0,0,1-.309.123c-.248,0-.309-.186-.248-.495a.746.746,0,0,1,.186-.309.4.4,0,0,1,.309-.123.232.232,0,0,1,.248.154.345.345,0,0,1-.031.309c0,.154-.092.217-.154.34" transform="translate(-205.816 -2.596)" fill="#fff"/>
          <path id="Path_2419" data-name="Path 2419" d="M245.762,22.46a.463.463,0,0,0-.186-.031H245.2l-.123.371a1.545,1.545,0,0,1,.371.031c.309.092.432.371.248.835h-1.3l-.154.4h1.669l.154-.4c.217-.649.123-1.051-.309-1.206" transform="translate(-204.742 -2.49)" fill="#fff"/>
          <path id="Path_2420" data-name="Path 2420" d="M246.017,24.13h.4l.835-2.318h-.4Z" transform="translate(-204.471 -2.584)" fill="#fff"/>
          <path id="Path_2421" data-name="Path 2421" d="M251.713,23.21c-.092.278-.248.4-.432.4h-.371a1.209,1.209,0,0,0,.248-.432l.278-.807h-.4l-.278.835c-.092.278-.248.4-.432.4h-.371a1.981,1.981,0,0,0,.248-.432l.309-.807h-.432l-.309.807c-.123.278-.278.432-.495.432h-.711c.248-.587.123-.989-.278-1.206a.463.463,0,0,0-.186-.031h-.371l-.123.371a1.544,1.544,0,0,1,.371.031c.309.092.432.371.248.835h-1.3l-.155.4h4.482a1.093,1.093,0,0,0,.989-.835l.278-.772h-.4Z" transform="translate(-204.356 -2.499)" fill="#fff"/>
          <path id="Path_2422" data-name="Path 2422" d="M254.539,22.349h-.958a1.32,1.32,0,0,0-1.206.958l-.432,1.3h.432l.432-1.175a.771.771,0,0,1,.649-.587h.309a1.4,1.4,0,0,0-.248.4c-.154.495.031.835.526.835a1.252,1.252,0,0,0,1.081-.807c.154-.495,0-.835-.495-.835m-.495,1.206c-.248,0-.309-.186-.248-.495a.594.594,0,0,1,.557-.432c.248,0,.309.186.248.495a.716.716,0,0,1-.557.432" transform="translate(-203.566 -2.502)" fill="#fff"/>
          <path id="Path_2423" data-name="Path 2423" d="M258.287,21.732h-.371l-.155.4h.371Z" transform="translate(-202.677 -2.596)" fill="#fff"/>
          <path id="Path_2424" data-name="Path 2424" d="M260.08,21.732h-.371l-.123.4h.371Z" transform="translate(-202.398 -2.596)" fill="#fff"/>
          <path id="Path_2425" data-name="Path 2425" d="M260.183,22.511l-.278.807c-.031.092-.092.154-.123.248a.336.336,0,0,1-.278.123h-.649c.278-.835.123-1.237-.495-1.237a2.032,2.032,0,0,0-1.329.649l.526-1.329h-.4l-.711,1.916h-.835a.312.312,0,0,1-.278-.092c-.031-.031-.031-.154,0-.371l.557-1.515h-.371l-.587,1.669a.554.554,0,0,0-.031.495.5.5,0,0,0,.4.186h4.142a.821.821,0,0,0,.807-.649l.371-.922h-.432Zm-1.824,1.144h-1.576a2.193,2.193,0,0,1,1.36-.9c.309,0,.432.278.278.772,0,.031-.031.092-.031.123" transform="translate(-203.121 -2.6)" fill="#fff"/>
        </g>
      </g>
    </g>
    <g id="مدى">
      <rect id="Rectangle_6605" data-name="Rectangle 6605" width="25.935" height="8.624" transform="translate(1428.672 3959.062)" fill="#fff"/>
      <rect id="Rectangle_6606" data-name="Rectangle 6606" width="25.935" height="8.624" transform="translate(1428.672 3947.285)" fill="#fff"/>
      <g id="Group_6555" data-name="Group 6555" transform="translate(1428.672 3947.283)">
        <g id="Group_6554" data-name="Group 6554" clip-path="url(#clip-path-2)">
          <path id="Path_2426" data-name="Path 2426" d="M191.891,23.142l-.123.031a5.5,5.5,0,0,1-.835.123c-.68,0-1.484-.371-1.484-1.978,0-.835.154-1.978,1.391-1.978a2.52,2.52,0,0,1,.9.186l.123.031Zm.186-8.038-.217.031v2.936l-.186-.031h-.031a4.133,4.133,0,0,0-1.144-.186c-2.473,0-3,1.855-3,3.431a3.052,3.052,0,0,0,2.671,3.392,3.011,3.011,0,0,0,.636.009,7.193,7.193,0,0,0,2.226-.278c.618-.186.835-.461.835-1.051V14.827c-.587.062-1.175.154-1.793.278" transform="translate(-140.02 -4.501)" fill="#fff"/>
          <path id="Path_2427" data-name="Path 2427" d="M198.306,22.81l-.123.031-.4.123a2.911,2.911,0,0,1-.958.154c-.587,0-.958-.278-.958-.807,0-.34.154-.866,1.144-.866h1.237v1.391h.062Zm-.835-5.409a9.078,9.078,0,0,0-2.536.432l-.649.186.217,1.453.618-.217a7.349,7.349,0,0,1,2.075-.371c.278,0,1.144,0,1.144.9v.4h-1.175c-2.164,0-3.122.68-3.122,2.164,0,1.237.9,2.009,2.442,2.009a12.247,12.247,0,0,0,1.7-.217h.062l.186.031c.587.123,1.206.217,1.824.34V19.688c0-1.484-.922-2.287-2.782-2.287" transform="translate(-139.017 -4.108)" fill="#fff"/>
          <path id="Path_2428" data-name="Path 2428" d="M185.483,22.81l-.186.031-.4.123a2.911,2.911,0,0,1-.958.154c-.587,0-.958-.278-.958-.807,0-.34.154-.866,1.081-.866H185.3Zm-.961-5.409a9.684,9.684,0,0,0-2.6.432l-.649.186.217,1.453.618-.217a7.328,7.328,0,0,1,2.1-.371c.278,0,1.144,0,1.144.9v.4h-1.175c-2.164,0-3.122.68-3.122,2.164,0,1.237.9,2.009,2.473,2.009a12.248,12.248,0,0,0,1.7-.217h.062l.186.031c.618.123,1.237.217,1.824.34V19.688c.031-1.484-.922-2.287-2.782-2.287" transform="translate(-141.002 -4.108)" fill="#fff"/>
          <path id="Path_2429" data-name="Path 2429" d="M178.77,17.378a5.2,5.2,0,0,0-2.075.461l-.062.031-.062-.031a3.281,3.281,0,0,0-1.855-.432,8.1,8.1,0,0,0-2.226.34c-.649.186-.9.495-.9,1.081V24.3H173.6V19.264l.154-.031a2.17,2.17,0,0,1,.9-.154.8.8,0,0,1,.878.714.828.828,0,0,1-.013.244v4.359h2.009V19.974a.923.923,0,0,0-.062-.432l-.062-.154.154-.062a2.327,2.327,0,0,1,1.02-.217c.4,0,.9.154.9.958v4.328h2.009V19.85a2.365,2.365,0,0,0-2.227-2.5,2.282,2.282,0,0,0-.493.023" transform="translate(-142.448 -4.116)" fill="#fff"/>
          <path id="Path_2430" data-name="Path 2430" d="M198.218,11.5a6.141,6.141,0,0,1-1.206-.123l-.123-.031V8.409a3.394,3.394,0,0,0-.031-.432l-.062-.123.154-.031c.031,0,.062-.031.123-.031h.031a.1.1,0,0,0,.062-.031c.031,0,.062-.031.123-.031a3.9,3.9,0,0,1,1.051-.123c1.237,0,1.391,1.144,1.391,1.978,0,1.577-.807,1.916-1.515,1.916m0-5.626h-.031a3.675,3.675,0,0,0-2.813.958A1.9,1.9,0,0,0,195,8.007V11.06a.754.754,0,0,1-.062.4l-.062.154h-3.71V9.458A3.168,3.168,0,0,0,187.892,6h-1.886c-.062.557-.154.9-.217,1.453h1.858c.989,0,1.484.835,1.484,2.075v2.19l-.154-.062a1.821,1.821,0,0,0-.432-.062H185.33c-.062.4-.154.958-.217,1.453h9.922c.34-.062.742-.154,1.051-.186a5.482,5.482,0,0,0,2.075.371,3.34,3.34,0,0,0,3.524-3.648,3.446,3.446,0,0,0-3.174-3.7c-.095-.008-.19-.012-.285-.01" transform="translate(-140.382 -5.872)" fill="#fff"/>
          <path id="Path_2431" data-name="Path 2431" d="M182.949,13.953h.062c2.19,0,3.215-.742,3.215-2.473A2.259,2.259,0,0,0,184,9.184a2,2,0,0,0-.249.009h-1.978a.863.863,0,0,1-.953-.76.78.78,0,0,1,0-.137c0-.4.154-.866,1.144-.866h4.328a11.9,11.9,0,0,0,.214-1.453h-4.482c-2.075,0-3.122.866-3.122,2.318s.9,2.19,2.442,2.19h1.978a.943.943,0,0,1,.958.928v.03a.952.952,0,0,1-.9,1,1,1,0,0,1-.176-.008h-7.852c-.989-.062-1.669-1.886-1.669-1.886v-.86c0-1.36.495-2.164,1.638-2.164h1.855c.062-.587.154-.9.217-1.453h-2.536a3.209,3.209,0,0,0-3.275,3.492v.922a3,3,0,0,0,2.7,3.276,2.961,2.961,0,0,0,.572,0H176.7l3.431.062h2.844v.123Z" transform="translate(-142.454 -5.853)" fill="#fff"/>
        </g>
      </g>
    </g>
    <g id="apple_pay" data-name="apple pay" transform="translate(1701.952 3944.981)">
      <g id="Group_6556" data-name="Group 6556" clip-path="url(#clip-path-3)">
        <path id="Path_2432" data-name="Path 2432" d="M394.479,7.089a3.793,3.793,0,0,1-3.029,1.421,4.3,4.3,0,0,1,1.081-3.091A4.448,4.448,0,0,1,395.5,3.874a4.222,4.222,0,0,1-1.02,3.215m1.051,1.669c-1.669-.092-3.06.922-3.864.922s-2.009-.861-3.307-.861a4.9,4.9,0,0,0-4.142,2.5c-1.793,3.061-.461,7.635,1.268,10.139.835,1.268,1.855,2.6,3.184,2.566,1.268-.031,1.762-.835,3.307-.835s1.978.835,3.307.807c1.391-.031,2.256-1.268,3.091-2.473a13.012,13.012,0,0,0,1.391-2.844,4.487,4.487,0,0,1-2.69-4.111,4.654,4.654,0,0,1,2.19-3.864,4.937,4.937,0,0,0-3.74-1.947m9.552-3.555V23.818h2.844V17.477h3.988a5.88,5.88,0,0,0,6.153-5.592c.009-.188.009-.375,0-.561a5.818,5.818,0,0,0-5.5-6.119c-.2-.01-.393-.01-.59,0Zm2.909,2.5h3.343c2.5,0,3.925,1.329,3.925,3.679s-1.421,3.679-3.925,3.679h-3.312V7.707ZM423.6,24.06a4.725,4.725,0,0,0,4.2-2.381h.092v2.254h2.627V14.662c0-2.69-2.133-4.39-5.379-4.39-3.03,0-5.286,1.762-5.379,4.142h2.566a2.5,2.5,0,0,1,2.69-1.886c1.761,0,2.721.835,2.721,2.349V15.9l-3.555.217c-3.308.217-5.1,1.607-5.1,3.988.031,2.381,1.886,3.957,4.513,3.957m.587-2.226c-1.546,0-2.5-.742-2.5-1.886,0-1.175.922-1.855,2.721-1.978l3.215-.217V18.8a3.125,3.125,0,0,1-3.2,3.043c-.075,0-.151-.007-.226-.014m9.83,7.048c2.813,0,4.142-1.081,5.286-4.328l5.07-14.224h-2.937l-3.4,10.974h-.025L434.6,10.33h-3.03l4.914,13.54-.248.835A2.313,2.313,0,0,1,433.8,26.62c-.217,0-.68-.031-.835-.031v2.226a5.535,5.535,0,0,0,1.051.062" transform="translate(-383.364 -3.873)" fill="#fff"/>
      </g>
    </g>
    <g id="visa" transform="translate(1628.029 3947.47)">
      <g id="Group_6558" data-name="Group 6558" clip-path="url(#clip-path-4)">
        <path id="Path_2433" data-name="Path 2433" d="M359.52,6.032c-4.39,0-8.315,2.287-8.315,6.492,0,4.822,6.955,5.162,6.955,7.573,0,1.02-1.144,1.947-3.153,1.947a10.445,10.445,0,0,1-4.946-1.3l-.922,4.235a15.38,15.38,0,0,0,5.657,1.081c4.791,0,8.593-2.381,8.593-6.646,0-5.1-6.986-5.44-6.986-7.666,0-.807.958-1.669,2.936-1.669a10.158,10.158,0,0,1,4.08.922l.892-4.105a13.653,13.653,0,0,0-4.791-.866m-40.155.309-.123.649a20.6,20.6,0,0,1,3.524,1.02c2.133.772,2.318,1.237,2.658,2.633l3.925,15.172h5.286l8.13-19.444H337.51l-5.225,13.169L330.152,8.35a2.3,2.3,0,0,0-2.411-2.009Zm25.5,0-4.142,19.444h5.008l4.111-19.444Zm27.944,0c-1.232,0-1.824.649-2.318,1.766l-7.33,17.615h5.255l1.02-2.906h6.372l.618,2.906h4.637l-4.05-19.381Zm.68,5.225,1.546,7.3h-4.173Z" transform="translate(-319.241 -6.032)" fill="#fff"/>
      </g>
    </g>
    <g id="american">
      <g id="Group_6561" data-name="Group 6561" transform="translate(1350.555 3946.837)">
        <g id="Group_6560" data-name="Group 6560" clip-path="url(#clip-path-5)">
          <path id="Path_2434" data-name="Path 2434" d="M81.881,5.487,78.55,13.23h2.168l.614-1.551h3.574l.611,1.551h2.215L84.405,5.487Zm1.232,1.8L84.2,10H82.02Zm4.849,5.941V5.487l3.082.012,1.791,4.992,1.749-5h3.057v7.742H95.705V7.524l-2.053,5.705h-1.7L89.9,7.524v5.705Zm11,0V5.487h6.317V7.216h-4.361V8.542h4.259v1.631h-4.259v1.375h4.361v1.681ZM106.4,5.487V13.23h1.937V10.48h.815l2.321,2.751h2.366l-2.55-2.853A2.357,2.357,0,0,0,113.414,8a2.505,2.505,0,0,0-2.49-2.52c-.07,0-.141,0-.21.008Zm1.937,1.729h2.212a.889.889,0,0,1,.922.815.875.875,0,0,1-.888.815h-2.247Zm7.845,6.01h-1.977V5.487h1.977Zm4.686,0h-.427c-2.065,0-3.318-1.627-3.318-3.84a3.548,3.548,0,0,1,3.162-3.894,3.5,3.5,0,0,1,.686,0h2.14V7.32h-2.219a1.863,1.863,0,0,0-1.819,1.906c0,.06.006.121.013.181a1.9,1.9,0,0,0,2.089,2.129h.51Zm4.212-7.739-3.331,7.744h2.168l.614-1.551h3.574l.611,1.551h2.215l-3.327-7.744Zm1.232,1.8L127.4,10h-2.181Zm4.842,5.939V5.487h2.461l3.15,4.864V5.487H138.7v7.742h-2.385L133.1,8.238v4.992ZM92.648,26.78V19.036h6.316v1.729H94.6v1.322h4.259v1.63H94.6v1.375h4.361V26.78Zm30.952,0V19.036h6.316v1.729h-4.359v1.322H129.8v1.63h-4.24v1.375h4.361V26.78Zm-24.39,0,3.076-3.824-3.148-3.92h2.439l1.876,2.421,1.881-2.421h2.344l-3.113,3.871,3.082,3.871h-2.435l-1.82-2.385-1.777,2.386Zm8.669-7.742v7.744h1.986V24.336H111.9a2.678,2.678,0,0,0,3.008-2.3,2.636,2.636,0,0,0,.023-.393,2.547,2.547,0,0,0-2.48-2.613,2.361,2.361,0,0,0-.3.009Zm1.986,1.751h2.145a.874.874,0,0,1,.952.787.78.78,0,0,1,0,.1.893.893,0,0,1-.893.893.671.671,0,0,1-.068,0h-2.138Zm5.909-1.752V26.78h1.937V24.029h.815l2.321,2.751h2.366l-2.547-2.847a2.359,2.359,0,0,0,2.124-2.378,2.505,2.505,0,0,0-2.49-2.52c-.073,0-.144,0-.217.008Zm1.936,1.729h2.215a.889.889,0,0,1,.922.815.876.876,0,0,1-.889.815h-2.247Zm13.1,6.014V25.1h3.878c.576,0,.822-.31.822-.65s-.248-.655-.822-.655h-1.755a2.165,2.165,0,0,1-2.366-1.945,2.261,2.261,0,0,1,0-.375c0-1.242.776-2.439,3.038-2.439h3.77l-.815,1.742H133.3c-.624,0-.815.327-.815.64a.675.675,0,0,0,.673.676h1.874a2.124,2.124,0,0,1,2.432,2.223,2.32,2.32,0,0,1-2.525,2.465Zm7.1,0V25.1h3.875c.576,0,.822-.31.822-.65s-.248-.655-.822-.655h-1.751a2.165,2.165,0,0,1-2.366-1.945,2.257,2.257,0,0,1,0-.375c0-1.242.776-2.439,3.038-2.439h3.77l-.815,1.742H140.4c-.624,0-.815.327-.815.64a.675.675,0,0,0,.673.676h1.874a2.124,2.124,0,0,1,2.432,2.223,2.32,2.32,0,0,1-2.525,2.465Z" transform="translate(-78.55 -5.485)" fill="#fff"/>
        </g>
      </g>
    </g>
    <g id="mastercard">
      <path id="Path_2444" data-name="Path 2444" d="M295.66,25.29a1.471,1.471,0,0,0,1.471,1.471h.11a1.5,1.5,0,0,0,.941-.332l-.291-.5a1.151,1.151,0,0,1-.67.249h0a.418.418,0,0,1-.055,0,.86.86,0,0,1-.608-.251.983.983,0,0,1,0-1.283h0a.808.808,0,0,1,.583-.248h.026a1.187,1.187,0,0,1,.727.25l0,0,.291-.5a1.538,1.538,0,0,0-.961-.333h-.089a1.471,1.471,0,0,0-1.471,1.471" transform="translate(1305.185 3944.156)" fill="#fff"/>
      <path id="Path_2445" data-name="Path 2445" d="M308.284,9.895a10.437,10.437,0,0,0-5.542-5.572l-.068-.025A10.166,10.166,0,0,0,298.6,3.46h-.014v0h-.044a10.3,10.3,0,0,0-5.809,1.783l.036-.022a11.2,11.2,0,0,1,3.654,5.417l.021.08a11.053,11.053,0,0,1,.491,3.3,11.32,11.32,0,0,1-.5,3.344l.021-.08a10.982,10.982,0,0,1-3.665,5.456l-.021.017a10.481,10.481,0,0,0,9.983.893l-.068.027a10.453,10.453,0,0,0,5.574-5.531l.025-.068a10.209,10.209,0,0,0,.839-4.088,10.332,10.332,0,0,0-.866-4.155Z" transform="translate(1304.737 3941.044)" fill="#fff"/>
      <path id="Path_2446" data-name="Path 2446" d="M301.018,26.7V23.9H300.4v.331a1.029,1.029,0,0,0-.825-.415h-.077a1.345,1.345,0,0,0-.973.414,1.58,1.58,0,0,0,0,2.113,1.345,1.345,0,0,0,.974.414h.09a.994.994,0,0,0,.807-.413l0,0V26.7Zm-.81-.762h0a.806.806,0,0,1-.576.243h-.073a.782.782,0,0,1-.572-.248,1.021,1.021,0,0,1,0-1.285h0a.777.777,0,0,1,.571-.248h.053a.79.79,0,0,1,.586.258.9.9,0,0,1,.237.611v.025c0,.01,0,.023,0,.036a.916.916,0,0,1-.229.608" transform="translate(1305.561 3944.156)" fill="#fff"/>
      <path id="Path_2447" data-name="Path 2447" d="M301.331,23.9v2.8h.6V25.125c0-.48.2-.724.6-.724h.014a.832.832,0,0,1,.367.085l-.007,0,.186-.581a.953.953,0,0,0-.394-.083h-.062a.8.8,0,0,0-.7.41V23.9Z" transform="translate(1306.052 3944.157)" fill="#fff"/>
      <path id="Path_2448" data-name="Path 2448" d="M305.9,26.839V22.9h-.6v1.471a1.052,1.052,0,0,0-.836-.416h-.072a1.311,1.311,0,0,0-.965.423h0a1.553,1.553,0,0,0,0,2.092h0a1.313,1.313,0,0,0,.966.424h.017l.068,0a1.021,1.021,0,0,0,.821-.414v.35Zm-.8-.768h0a.812.812,0,0,1-.587.249h-.047a.8.8,0,0,1-.587-.258.955.955,0,0,1,0-1.265h0a.849.849,0,0,1,1.221,0,.97.97,0,0,1,0,1.273" transform="translate(1306.31 3944.017)" fill="#fff"/>
      <path id="Path_2449" data-name="Path 2449" d="M293.987,23.9v2.8h.621V25.125c0-.48.2-.724.6-.724h.013a.824.824,0,0,1,.365.085l0,0,.187-.581a1.037,1.037,0,0,0-.412-.083h-.047a.8.8,0,0,0-.7.41l0,0V23.9Z" transform="translate(1304.93 3944.157)" fill="#fff"/>
      <path id="Path_2450" data-name="Path 2450" d="M278.921,23.906v2.8h.62V25.147c0-.495.231-.742.684-.742.412,0,.621.25.621.742V26.7h.6V25.147c0-.5.232-.742.682-.742l0,0c.413,0,.621.25.621.741v1.553h.621V24.935c0-.014,0-.028,0-.044a1.082,1.082,0,0,0-.3-.75,1.179,1.179,0,0,0-.807-.317h-.013a.6.6,0,0,0-.067,0,1.069,1.069,0,0,0-.9.5l0,0a1,1,0,0,0-.866-.5c-.022,0-.046,0-.069,0h-.009a.972.972,0,0,0-.793.412l0,0v-.331Z" transform="translate(1302.627 3944.157)" fill="#fff"/>
      <path id="Path_2451" data-name="Path 2451" d="M287.917,3.456a10.308,10.308,0,0,0-4.141.863l.067-.027a10.43,10.43,0,0,0-5.585,5.532l-.025.067a10.216,10.216,0,0,0-.839,4.089,10.337,10.337,0,0,0,.866,4.155l-.027-.066a10.457,10.457,0,0,0,5.531,5.574l.068.025a10.476,10.476,0,0,0,9.952-.945l-.037.024a11.07,11.07,0,0,1-3.665-5.418l-.02-.077a11.107,11.107,0,0,1-.478-3.259,11.319,11.319,0,0,1,4.144-8.765l.02-.016a10.26,10.26,0,0,0-5.772-1.759h-.045v0Z" transform="translate(1302.393 3941.044)" fill="#fff"/>
      <path id="Path_2452" data-name="Path 2452" d="M292.734,5.429l-.024-.017h0a10.333,10.333,0,0,0-3.541,5.091l-.02.073a10.268,10.268,0,0,0-.477,3.125,10.462,10.462,0,0,0,.488,3.169l-.02-.074a10.242,10.242,0,0,0,3.546,5.139l.024.017a10.22,10.22,0,0,0,3.552-5.084l.021-.071a10.272,10.272,0,0,0,.467-3.1,10.491,10.491,0,0,0-.5-3.2l.021.075a10.354,10.354,0,0,0-3.538-5.146" transform="translate(1304.116 3941.344)" fill="#fff"/>
      <path id="Path_2453" data-name="Path 2453" d="M292.51,23.819h-.065a1.315,1.315,0,0,0-.96.415,1.483,1.483,0,0,0-.394,1.008c0,.017,0,.036,0,.054h0v0h0c0,.017,0,.038,0,.06a1.445,1.445,0,0,0,.4,1.005,1.39,1.39,0,0,0,.982.4h.1a1.687,1.687,0,0,0,1.085-.394l-.291-.454a1.237,1.237,0,0,1-.8.31h0l-.069,0a.787.787,0,0,1-.779-.682v0h2.091V25.3c0-.022,0-.045,0-.069a1.505,1.505,0,0,0-.377-1h0a1.238,1.238,0,0,0-.921-.409m.678,1.222h-1.449a.727.727,0,0,1,1.449,0Z" transform="translate(1304.486 3944.156)" fill="#fff"/>
      <path id="Path_2454" data-name="Path 2454" d="M286.493,25.65l0,0,0,0" transform="translate(1303.784 3944.436)" fill="#fff"/>
      <path id="Path_2455" data-name="Path 2455" d="M286.127,26.7V23.9h-.6v.332a1.118,1.118,0,0,0-.872-.415H284.6a1.31,1.31,0,0,0-.959.415,1.609,1.609,0,0,0,0,2.114h0a1.312,1.312,0,0,0,.96.414h.033a.4.4,0,0,0,.054,0,1.052,1.052,0,0,0,.836-.414V26.7Zm-.807-.765h0a.78.78,0,0,1-.573.248h-.068a.8.8,0,0,1-.582-.249,1.017,1.017,0,0,1,0-1.285h0a.808.808,0,0,1,.582-.248h.07a.757.757,0,0,1,.57.259h0a1,1,0,0,1,0,1.273" transform="translate(1303.287 3944.156)" fill="#fff"/>
      <path id="Path_2456" data-name="Path 2456" d="M286.5,25.651h0Z" transform="translate(1303.784 3944.437)" fill="#fff"/>
      <path id="Path_2457" data-name="Path 2457" d="M287.428,26.76h.037l.088,0a1.561,1.561,0,0,0,.86-.256l-.007,0a.783.783,0,0,0,.342-.646v-.017c0-.466-.327-.741-.973-.828l-.288-.043c-.318-.054-.477-.151-.477-.288,0-.208.173-.31.518-.31h.007a1.813,1.813,0,0,1,.893.233l-.009-.006.249-.5a2.085,2.085,0,0,0-1.068-.291h-.144a1.323,1.323,0,0,0-.78.252l0,0a.8.8,0,0,0-.31.635v.027c0,.453.327.725.972.807l.27.043c.33.055.5.152.5.291,0,.233-.212.353-.643.353h-.012a1.594,1.594,0,0,1-.92-.292h0l-.267.475a2.075,2.075,0,0,0,1.163.353" transform="translate(1303.749 3944.156)" fill="#fff"/>
      <path id="Path_2458" data-name="Path 2458" d="M289.328,23.158v.848l-.569,0v.559h.579v1.265c0,.686.327,1.034.973,1.034h.022a1.328,1.328,0,0,0,.724-.214l-.006,0-.167-.519a1.135,1.135,0,0,1-.537.146h0c-.263,0-.4-.153-.4-.455V24.566h.994v-.559h-.994v-.848Z" transform="translate(1304.13 3944.055)" fill="#fff"/>
      <path id="Line_68" data-name="Line 68" d="M0,0H0Z" transform="translate(1605.084 3967.977)"/>
      <path id="Line_69" data-name="Line 69" d="M0,0H0Z" transform="translate(1605.086 3970.918)"/>
      <path id="Line_70" data-name="Line 70" d="M0,0H0Z" transform="translate(1602.352 3968.557)"/>
      <path id="Line_71" data-name="Line 71" d="M0,0H0Z" transform="translate(1610.714 3970.916)"/>
      <path id="Line_72" data-name="Line 72" d="M0,0H0Z" transform="translate(1608.704 3967.978)"/>
      <path id="Line_73" data-name="Line 73" d="M0,0H0Z" transform="translate(1591.214 3970.917)"/>
      <path id="Line_74" data-name="Line 74" d="M0,0H0Z" transform="translate(1587.922 3967.977)"/>
      <path id="Line_75" data-name="Line 75" d="M0,0H0Z" transform="translate(1603.324 3944.504)"/>
      <path id="Line_76" data-name="Line 76" d="M0,0H0Z" transform="translate(1588.006 3970.338)"/>
      <path id="Line_77" data-name="Line 77" d="M0,0H0Z" transform="translate(1587.923 3970.918)"/>
      <path id="Line_78" data-name="Line 78" d="M0,0H0Z" transform="translate(1582.972 3967.979)"/>
      <path id="Path_2459" data-name="Path 2459" d="M298.871,24.538h0Z" transform="translate(1305.676 3944.266)"/>
      <path id="Path_2460" data-name="Path 2460" d="M283.984,24.538h0Z" transform="translate(1303.4 3944.266)"/>
      <path id="Path_2461" data-name="Path 2461" d="M304.824,25.65h0Z" transform="translate(1306.585 3944.436)"/>
      <path id="Path_2462" data-name="Path 2462" d="M285.046,25.652h0Z" transform="translate(1303.563 3944.437)"/>
      <path id="Path_2463" data-name="Path 2463" d="M303.765,24.547h0Z" transform="translate(1306.424 3944.268)"/>
      <path id="Path_2464" data-name="Path 2464" d="M286.5,25.653h0Z" transform="translate(1303.784 3944.437)"/>
      <path id="Path_2465" data-name="Path 2465" d="M287.36,23.82h0Z" transform="translate(1303.916 3944.157)"/>
      <path id="Path_2466" data-name="Path 2466" d="M296.437,24.54h0Z" transform="translate(1305.304 3944.267)"/>
      <path id="Path_2467" data-name="Path 2467" d="M304.222,23.82h0Z" transform="translate(1306.493 3944.157)"/>
      <path id="Path_2468" data-name="Path 2468" d="M292.33,26.374h0Z" transform="translate(1304.676 3944.547)"/>
      <path id="Path_2469" data-name="Path 2469" d="M296.984,26.369h0Z" transform="translate(1305.387 3944.546)"/>
      <path id="Path_2470" data-name="Path 2470" d="M299.931,25.656h0Z" transform="translate(1305.838 3944.437)"/>
      <path id="Path_2471" data-name="Path 2471" d="M291.091,25.1h0Z" transform="translate(1304.486 3944.352)"/>
    </g>
    <g id="Rectangle_6612" data-name="Rectangle 6612" transform="translate(1265 3938)" fill="none" stroke="#fff" stroke-width="1.5">
      <rect width="513" height="40" rx="4" stroke="none"/>
      <rect x="0.75" y="0.75" width="511.5" height="38.5" rx="3.25" fill="none"/>
    </g>
    <g id="تابي" transform="translate(1280 3949)">
      <g id="Group_6562" data-name="Group 6562" clip-path="url(#clip-path-6)">
        <path id="Path_2472" data-name="Path 2472" d="M15.4,7.92c-1.249,0-1.983.912-1.983,2.447S14.2,12.8,15.4,12.8s1.98-.953,1.982-2.43a2.856,2.856,0,0,0-.526-1.766A1.776,1.776,0,0,0,15.4,7.92" fill="#fff"/>
        <path id="Path_2473" data-name="Path 2473" d="M24.589,7.894a1.811,1.811,0,0,0-1.456.685,2.862,2.862,0,0,0-.526,1.774c0,1.48.782,2.435,1.982,2.435v-.013c1.249,0,1.982-.907,1.982-2.435s-.746-2.446-1.982-2.446" fill="#fff"/>
        <path id="Path_2474" data-name="Path 2474" d="M33.533,7.894a1.811,1.811,0,0,0-1.456.685,2.862,2.862,0,0,0-.526,1.774c0,1.48.782,2.435,1.982,2.435v-.013c1.236,0,1.982-.907,1.982-2.435s-.746-2.446-1.982-2.446" fill="#fff"/>
        <path id="Path_2475" data-name="Path 2475" d="M50.34,16.227V3.916A3.907,3.907,0,0,0,46.469,0H3.9A3.909,3.909,0,0,0,0,3.919V16.227a3.909,3.909,0,0,0,3.9,3.915H46.44a3.908,3.908,0,0,0,3.9-3.915M10.617,7.5l-2.581.4v.7l2.581-.4V9.634l-2.581.4v1.728c.05.612.477.734,1.236.734a2.252,2.252,0,0,0,1.016-.233l-.012-.013H10.3v1.889a4.2,4.2,0,0,1-1.689.355,2.445,2.445,0,0,1-.284.016A2.412,2.412,0,0,1,5.92,12.093V10.361l-1.237.191V9.12L5.92,8.929v-.7l-1.237.191v-1.5l1.359-.21V3.822H8.159v.61A2.349,2.349,0,0,1,6.152,6.684l.2-.026L10.617,6Zm8.774,6.831H17.274V11.808a2.566,2.566,0,0,1-.008.316,2.6,2.6,0,0,1-2.818,2.363A2.842,2.842,0,0,1,12.111,13.4a5.022,5.022,0,0,1-.832-3.034,4.934,4.934,0,0,1,.832-3.034,2.842,2.842,0,0,1,2.337-1.088,2.368,2.368,0,0,1,.292-.009A2.6,2.6,0,0,1,17.274,8.9V6.746l2.117-.331Zm6.164.158a2.721,2.721,0,0,1-.3.008,2.608,2.608,0,0,1-2.527-2.687v2.52H20.612v-9.9L22.729,4.1V8.9a2.556,2.556,0,0,1,.009-.3,2.6,2.6,0,0,1,2.817-2.363V6.24c1.995,0,3.182,1.542,3.182,4.124s-1.188,4.123-3.182,4.123m8.928,0a2.7,2.7,0,0,1-.3.008,2.609,2.609,0,0,1-2.529-2.687v2.52h-2.1v-9.9L31.673,4.1V8.9a2.626,2.626,0,0,1,.009-.32A2.592,2.592,0,0,1,34.5,6.231l-.011.012c1.994,0,3.176,1.539,3.176,4.121s-1.187,4.123-3.181,4.123m8.666,2.252h-2.1v-.024l.63-2.411h-1.93L37.681,6.389h2.251l1.794,7.738,2.023-7.738h2.116Z" fill="#fff"/>
      </g>
    </g>
  </g>
</svg>
