<svg width="184" height="134" viewBox="0 0 184 134" fill="none" xmlns="http://www.w3.org/2000/svg">
<rect width="184" height="134" fill="white"/>
<path d="M156.894 64.3027C140.423 64.3027 129.691 52.8266 129.691 35.7187C129.691 18.8233 140.53 7.77223 156.469 7.77223C173.152 7.77223 183.14 18.5045 183.14 35.7187C183.14 37.8439 183.034 40.0754 182.821 42.2006H146.374C147.118 47.5136 150.837 50.2764 157 50.2764C161.082 50.2764 163.596 48.7079 164.636 46.7949C164.714 46.6517 164.861 46.5572 165.024 46.5572H181.728C182.009 46.5572 182.211 46.8281 182.128 47.0964C178.928 57.4234 170.786 64.3027 156.894 64.3027ZM146.268 29.4493H166.032C166.032 24.4551 162.844 21.161 156.469 21.161C150.306 21.161 146.693 24.3488 146.268 29.4493Z" fill="#003932"/>
<path d="M100.914 64.3027C84.4436 64.3027 73.7113 52.8266 73.7113 35.7187C73.7113 18.8233 84.5498 7.77223 100.489 7.77223C117.172 7.77223 127.16 18.5045 127.16 35.7187C127.16 37.8439 127.054 40.0754 126.841 42.2006H90.3941C91.138 47.5136 94.8571 50.2764 101.02 50.2764C105.103 50.2764 107.617 48.7079 108.656 46.7949C108.734 46.6517 108.881 46.5572 109.044 46.5572H125.749C126.03 46.5572 126.232 46.8281 126.148 47.0964C122.949 57.4234 114.806 64.3027 100.914 64.3027ZM90.2879 29.4493H110.052C110.052 24.4551 106.864 21.161 100.489 21.161C94.3258 21.161 90.7129 24.3488 90.2879 29.4493Z" fill="#003932"/>
<path d="M39.0681 62.6031C38.8352 62.6031 38.6463 62.4143 38.6463 62.1814V9.89477C38.6463 9.66183 38.8352 9.473 39.0681 9.473H52.9315C53.1644 9.473 53.3533 9.66183 53.3533 9.89477V14.0584C53.3533 15.1643 53.2731 16.2686 53.1135 17.3629L52.5882 20.9638H55.2624C56.4342 13.8799 60.9916 9.473 67.302 9.473H75.9847L75.3915 18.0726C75.081 22.5737 71.3391 26.0663 66.8273 26.0663H64.1488C58.4107 26.0663 55.648 28.6166 55.648 34.1421V62.1814C55.648 62.4143 55.4591 62.6031 55.2262 62.6031H39.0681Z" fill="#003932"/>
<path d="M14.6639 62.6024C4.67545 62.6024 0 58.5645 0 47.9384V0.421771C0 0.188834 0.188833 0 0.421771 0H16.5799C16.8128 0 17.0016 0.188833 17.0016 0.421771V9.47221H34.9554C35.1883 9.47221 35.3772 9.66105 35.3772 9.89398V23.9269C35.3772 24.1598 35.1883 24.3487 34.9554 24.3487H17.0016V43.5818C17.0016 46.3445 18.0643 47.7259 21.1458 47.7259H34.9554C35.1883 47.7259 35.3772 47.9147 35.3772 48.1477V62.1806C35.3772 62.4135 35.1883 62.6024 34.9554 62.6024H14.6639Z" fill="#003932"/>
<mask id="mask0_5017_42700" style="mask-type:luminance" maskUnits="userSpaceOnUse" x="46" y="83" width="137" height="42">
<path d="M182.889 83H46V124.972H182.889V83Z" fill="white"/>
</mask>
<g mask="url(#mask0_5017_42700)">
<path d="M79.6281 91.091C79.881 90.8381 79.881 90.4336 79.6281 90.1302C76.1389 85.7813 70.8798 83 64.9632 83C59.0467 83 53.7876 85.7813 50.2983 90.1302C56.7205 84.2136 68.857 91.3944 68.857 91.3944C70.5258 92.3552 72.144 93.4171 74.2173 93.4171C76.948 93.4171 78.6168 92.1529 79.2742 91.4955C79.3753 91.3944 79.527 91.2427 79.6281 91.1415V91.091Z" fill="#6B47F5"/>
<path d="M68.857 91.3439C68.857 91.3439 56.67 84.2137 50.2983 90.0796C50.0961 90.3325 50.0455 90.6865 50.2983 90.9899C50.3489 91.091 51.9671 93.6194 55.7597 93.6194C57.6814 93.6194 59.1984 92.6586 60.6143 91.799C62.0302 90.9393 63.345 90.1302 65.0138 90.1302C66.4297 90.1302 67.6434 90.6865 68.9076 91.3944L68.857 91.3439Z" fill="#A8ABD4"/>
<path d="M67.1883 121.028C67.2894 121.382 67.6434 121.584 67.9974 121.533C73.4083 120.623 78.4145 117.336 81.3475 112.077C84.2805 106.868 84.5839 100.8 82.6623 95.5411C84.4322 104.138 72.3463 111.369 72.3463 111.369C70.7281 112.38 68.9582 113.291 67.9468 115.111C66.5815 117.538 66.8343 119.612 67.0366 120.573C67.0366 120.724 67.1377 120.876 67.1883 121.028Z" fill="#6B47F5"/>
<path d="M72.3464 111.318C72.3464 111.318 84.4829 104.087 82.6624 95.4904C82.5613 95.187 82.2579 94.9847 81.9039 94.9847C81.8027 94.9847 78.8697 95.1364 76.9481 98.5245C75.9873 100.193 76.0379 102.014 76.0885 103.733C76.0885 105.402 76.139 107.02 75.3299 108.487C74.622 109.751 73.5095 110.56 72.2958 111.318H72.3464Z" fill="#A8ABD4"/>
<path d="M48.0227 95.0353C47.6687 94.9847 47.3147 95.187 47.2136 95.4904C45.2414 100.75 45.5448 106.818 48.5284 112.026C51.4614 117.235 56.4676 120.522 61.8785 121.483C53.6864 118.752 53.6358 104.441 53.6358 104.441C53.6358 102.469 53.6864 100.497 52.675 98.6762C51.3097 96.2489 49.388 95.4398 48.5284 95.1364C48.3767 95.0858 48.225 95.0353 48.0227 95.0353Z" fill="#6B47F5"/>
<path d="M53.6865 104.441C53.6865 104.441 53.6865 118.752 61.9292 121.483C62.2326 121.533 62.5865 121.382 62.6877 121.078C62.6877 120.977 64.053 118.297 62.182 114.959C61.2212 113.291 59.7041 112.38 58.1871 111.571C56.7206 110.762 55.4058 110.004 54.5461 108.537C53.8382 107.273 53.737 105.908 53.6865 104.441Z" fill="#A8ABD4"/>
<path d="M166.707 85.1745C165.999 85.1745 165.392 85.7308 165.392 86.5399C165.392 87.2478 165.999 87.9052 166.707 87.9052C167.415 87.9052 168.073 87.2478 168.073 86.5399C168.073 85.7308 167.466 85.1745 166.707 85.1745Z" fill="black"/>
<path d="M170.298 85.1745C169.59 85.1745 168.983 85.7308 168.983 86.5399C168.983 87.2478 169.59 87.9052 170.298 87.9052C171.006 87.9052 171.663 87.2478 171.663 86.5399C171.663 85.7308 171.056 85.1745 170.298 85.1745Z" fill="black"/>
<path d="M110.02 100.092C109.312 100.092 108.705 100.648 108.705 101.457C108.705 102.165 109.312 102.823 110.02 102.823C110.728 102.823 111.386 102.165 111.386 101.457C111.386 100.749 110.779 100.092 110.02 100.092Z" fill="black"/>
<path d="M113.661 100.092C112.953 100.092 112.346 100.648 112.346 101.457C112.346 102.165 112.953 102.823 113.661 102.823C114.369 102.823 115.026 102.165 115.026 101.457C115.026 100.648 114.419 100.092 113.661 100.092Z" fill="black"/>
<path d="M181.726 83.4551C181.221 83.4551 180.462 83.6068 180.462 84.6182V98.6763H182.889V83.708C182.282 83.4551 181.827 83.4551 181.726 83.4551Z" fill="black"/>
<path d="M118.465 90.4336V96.6029H115.936C113.914 96.6029 113.054 96.4006 113.054 93.7711V89.5233C112.447 89.2705 112.043 89.2705 111.891 89.2705C111.385 89.2705 110.627 89.4222 110.627 90.4336V93.7711C110.627 95.6927 110.273 96.6029 108.199 96.6029H106.075C104.407 96.6029 104.103 95.4398 104.103 94.2262V89.2705H100.766C96.9225 89.2705 94.3941 90.9898 94.3941 94.1756C94.3941 97.5132 96.9731 98.6762 99.1981 98.6762C100.766 98.6762 101.979 98.1705 102.89 97.1592C103.699 98.5245 105.115 98.6762 106.328 98.6762H109.008C110.222 98.6762 111.233 98.2211 111.739 97.2603C112.245 98.2211 113.104 98.6762 114.268 98.6762H120.791V89.4728C120.184 89.2199 119.78 89.2199 119.628 89.2199C119.122 89.2199 118.364 89.3716 118.364 90.383L118.465 90.4336ZM101.727 93.7711C101.727 96.7041 99.2993 96.5524 99.2487 96.5524C97.1754 96.5524 96.872 94.8836 96.872 94.1251C96.872 91.4449 99.7038 91.2932 100.816 91.2932H101.676V93.7205L101.727 93.7711Z" fill="black"/>
<path d="M176.467 84.5676V96.5523H169.741V89.4727C169.135 89.2199 168.73 89.2199 168.578 89.2199C168.073 89.2199 167.314 89.3716 167.314 90.383V96.5523H160.133C155.633 96.5523 153.408 93.8722 152.143 92.254C153.307 91.2426 154.672 91.1415 155.481 91.1921C156.543 91.2426 157.554 91.6978 158.212 92.3046C157.807 92.8608 156.947 93.8722 155.987 94.6307C156.593 94.9847 157.352 95.2881 158.212 95.4904C159.577 94.1756 160.487 92.8103 160.841 92.254C160.588 91.8495 159.274 89.3716 155.633 89.1188C151.688 88.8659 149.716 91.7483 149.413 92.1529C150.576 93.6699 151.587 94.9847 153.054 96.1984C152.346 96.4006 151.587 96.5523 150.728 96.5523H135.81V83.6574C135.203 83.4045 134.798 83.4045 134.647 83.4045C134.141 83.4045 133.383 83.5562 133.383 84.5676V98.6257H150.728C152.346 98.6257 153.863 98.2211 155.178 97.5637C156.644 98.2717 158.313 98.6257 160.133 98.6257H178.894V83.6574C178.287 83.4045 177.883 83.4045 177.731 83.4045C177.225 83.4045 176.467 83.5562 176.467 84.5676Z" fill="black"/>
<path d="M119.679 85.1745C118.971 85.1745 118.364 85.7308 118.364 86.5399C118.364 87.2478 118.971 87.9052 119.679 87.9052C120.387 87.9052 121.044 87.2478 121.044 86.5399C121.044 85.7308 120.437 85.1745 119.679 85.1745Z" fill="black"/>
<path d="M102.435 85.1745C101.727 85.1745 101.12 85.7308 101.12 86.5399C101.12 87.2478 101.727 87.9052 102.435 87.9052C103.142 87.9052 103.8 87.2478 103.8 86.5399C103.8 85.7308 103.193 85.1745 102.435 85.1745Z" fill="black"/>
<path d="M98.7935 85.1745C98.0856 85.1745 97.4788 85.7308 97.4788 86.5399C97.4788 87.2478 98.0856 87.9052 98.7935 87.9052C99.5015 87.9052 100.159 87.2478 100.159 86.5399C100.159 85.7308 99.552 85.1745 98.7935 85.1745Z" fill="black"/>
<path d="M127.163 89.1188C124.533 89.1188 122.055 90.6359 122.055 94.024C122.055 97.4121 124.837 98.6257 127.365 98.6257H129.59V98.828C129.59 99.4854 129.337 100.244 128.781 100.8C127.517 102.115 124.988 101.407 124.938 101.407C124.432 101.306 123.926 101.104 123.471 100.851C122.763 101.963 123.32 102.823 124.179 103.126C125.747 103.733 128.275 103.834 129.742 102.975C131.36 102.014 132.017 100.042 132.017 97.8672V94.7825C132.017 91.445 130.45 89.0682 127.112 89.0682L127.163 89.1188ZM129.641 96.603H127.365C126.809 96.603 124.533 96.603 124.533 93.9734C124.533 92.2541 125.545 91.1921 127.011 91.1921C128.73 91.1921 129.641 92.4563 129.641 94.9848V96.5524V96.603Z" fill="black"/>
<path d="M103.143 116.982C103.143 116.982 102.333 117.589 101.272 117.589C100.867 117.589 100.361 117.538 99.9061 117.184C99.4005 116.78 99.3499 116.072 99.3499 115.667V110.813H103.395C103.648 110.307 103.699 109.852 103.699 109.7C103.699 108.739 103.092 108.537 102.435 108.537H99.3499V105.705C98.7431 105.452 98.3385 105.452 98.1868 105.452C97.6811 105.452 96.9226 105.604 96.9226 106.615V108.537H95.709C95.0516 108.537 94.4448 108.739 94.4448 109.7C94.4448 109.852 94.4448 110.307 94.7482 110.813H96.9732V116.122C96.9732 117.285 97.4283 119.713 100.715 119.713C101.17 119.713 101.979 119.713 102.94 119.308C103.143 119.207 103.598 119.055 104.154 118.6C104.002 117.993 103.598 117.336 103.143 116.881V116.982Z" fill="black"/>
<path d="M182.485 110.813C182.232 110.256 181.574 109.093 179.552 108.588C177.832 108.183 174.545 108.183 173.939 109.346C173.686 109.852 173.787 110.358 173.989 110.661C174.141 110.863 174.242 111.015 174.343 111.066C174.495 110.914 174.849 110.762 175.304 110.61C176.164 110.307 177.579 110.256 178.54 110.459C179.906 110.712 180.26 111.571 180.411 112.128C178.54 111.925 176.062 111.571 174.343 112.684C172.725 113.746 172.169 115.971 173.129 117.69C174.09 119.409 176.113 119.763 177.984 119.814C180.512 119.915 182.839 119.511 182.889 119.511V112.987C182.889 112.128 182.737 111.42 182.485 110.863V110.813ZM178.439 117.842C177.681 117.842 176.872 117.842 176.164 117.538C175.557 117.286 174.95 116.78 174.849 116.122C174.697 115.212 175.354 114.454 175.86 114.15C176.568 113.796 177.428 113.847 178.186 113.897C178.844 113.948 179.754 113.999 180.512 114.1V117.741C180.007 117.791 178.641 117.842 178.49 117.842H178.439Z" fill="black"/>
<path d="M116.442 111.875L119.122 112.633L117.909 108.79C117.909 108.79 117.251 108.588 116.847 108.588C116.189 108.588 115.633 108.891 115.684 109.65L116.442 111.875Z" fill="black"/>
<path d="M156.998 109.751V119.46H159.425V108.79C158.819 108.537 158.414 108.537 158.262 108.537C157.757 108.537 156.998 108.689 156.998 109.7V109.751Z" fill="black"/>
<path d="M141.271 109.751V114.858C141.271 116.78 140.412 117.892 138.54 117.892C137.934 117.892 135.81 117.892 135.81 114.858V108.841C135.203 108.588 134.798 108.588 134.647 108.588C134.141 108.588 133.383 108.739 133.383 109.751V115.465C133.383 118.6 135.86 120.067 138.54 120.067C141.676 120.067 143.699 118.196 143.699 115.465V108.841C143.092 108.588 142.687 108.588 142.535 108.588C142.03 108.588 141.271 108.739 141.271 109.751Z" fill="black"/>
<path d="M169.033 109.751V114.403C169.033 115.617 168.629 117.437 166.252 117.437C163.774 117.437 163.521 115.516 163.521 114.656V108.841C162.914 108.588 162.51 108.588 162.358 108.588C161.853 108.588 161.094 108.739 161.094 109.751V115.111C161.094 118.6 163.825 119.511 165.797 119.511C166.859 119.511 168.376 119.157 169.084 118.145C169.084 121.23 168.679 123 165.544 123C163.774 123 162.611 122.595 162.105 122.393C161.499 123.758 161.903 124.365 162.712 124.618C163.825 124.972 166.1 125.073 167.516 124.871C170.5 124.365 171.41 122.292 171.41 118.347V108.841C170.803 108.588 170.399 108.588 170.247 108.588C169.741 108.588 168.983 108.739 168.983 109.751H169.033Z" fill="black"/>
<path d="M150.374 108.335C147.643 108.335 145.216 109.801 145.216 112.937V118.6C145.216 119.612 145.974 119.763 146.48 119.763C146.581 119.763 147.036 119.763 147.643 119.511V113.594C147.643 110.611 149.817 110.56 150.374 110.56C152.245 110.56 153.104 111.672 153.104 113.594V118.6C153.104 119.612 153.863 119.763 154.368 119.763C154.47 119.763 154.925 119.763 155.532 119.511V112.937C155.532 110.155 153.458 108.335 150.374 108.335Z" fill="black"/>
<path d="M132.371 108.942C132.017 108.79 131.663 108.638 131.309 108.588C130.247 108.487 130.045 109.245 129.893 109.7L127.618 116.224L125.241 109.245C125.14 108.891 125.039 108.79 124.584 108.739C123.977 108.638 123.319 108.537 122.864 108.992C122.662 109.195 122.561 109.447 122.46 109.7L120.285 115.971L119.577 114.049C119.577 114.049 119.476 113.746 119.021 113.594C117.909 113.291 116.088 112.734 114.773 112.38C114.773 111.774 114.571 111.268 114.369 110.813C114.116 110.256 113.459 109.093 111.436 108.588C109.717 108.183 106.43 108.183 105.823 109.346C105.57 109.852 105.671 110.358 105.873 110.661C106.025 110.863 106.126 111.015 106.227 111.066C106.379 110.914 106.733 110.762 107.188 110.61C108.048 110.307 109.464 110.256 110.425 110.459C111.79 110.712 112.144 111.571 112.296 112.128C110.425 111.925 107.947 111.571 106.227 112.684C104.609 113.746 104.053 115.971 105.014 117.69C105.974 119.409 107.997 119.763 109.868 119.814C112.397 119.915 114.723 119.511 114.824 119.511V114.555C115.987 114.808 117.352 115.212 117.403 115.263C117.605 115.414 118.06 116.729 118.465 117.892L119.021 119.561H121.499L123.825 112.178L126.151 119.561H128.68L132.321 108.992L132.371 108.942ZM110.425 117.892C109.666 117.892 108.857 117.892 108.149 117.589C107.542 117.336 106.935 116.83 106.834 116.173C106.682 115.263 107.34 114.504 107.845 114.201C108.553 113.847 109.413 113.897 110.121 113.948C110.829 113.999 111.689 114.049 112.447 114.15V117.791C111.942 117.842 110.576 117.892 110.425 117.892Z" fill="black"/>
<path d="M158.212 103.834C157.807 103.834 157.504 103.986 157.2 104.239C156.947 104.492 156.796 104.846 156.796 105.25C156.796 105.655 156.947 106.009 157.2 106.262C157.453 106.514 157.807 106.666 158.212 106.666C158.616 106.666 158.97 106.514 159.223 106.262C159.476 106.009 159.628 105.655 159.628 105.25C159.628 104.846 159.476 104.492 159.223 104.239C158.97 103.986 158.616 103.834 158.212 103.834Z" fill="black"/>
</g>
<path d="M9.04001 113.48C6.99201 113.48 5.16801 112.744 4.14401 111.464V113H0.208008V90.6H4.68801V98.408C5.64801 97.32 7.24801 96.712 9.04001 96.712C13.552 96.712 16.624 100.072 16.624 105.096C16.624 110.152 13.552 113.48 9.04001 113.48ZM4.62401 105.096C4.62401 107.688 6.09601 109.448 8.30401 109.448C10.544 109.448 12.016 107.688 12.016 105.096C12.016 102.504 10.544 100.744 8.30401 100.744C6.09601 100.744 4.62401 102.504 4.62401 105.096Z" fill="#003932"/>
<path d="M17.8633 118.76V114.824H21.1273C21.9593 114.824 22.4713 114.472 22.7593 113.8L23.7193 111.72L17.2873 97.192H22.3753L26.0873 106.6L29.7673 97.192H34.7593L26.3113 116.232C25.6073 117.864 24.6153 118.76 22.3433 118.76H17.8633Z" fill="#003932"/>
</svg>
