<?xml version="1.0" encoding="UTF-8"?>
<svg id="Layer_1" xmlns="http://www.w3.org/2000/svg" version="1.1" viewBox="0 0 671.6 162.3">
  <!-- Generator: Adobe Illustrator 29.5.1, SVG Export Plug-In . SVG Version: 2.1.0 Build 141)  -->
  <defs>
    <style>
      .st0 {
        fill: #005691;
      }

      .st1 {
        fill: #0c6d38;
      }
    </style>
  </defs>
  <g>
    <path class="st0" d="M511.4,9.2l-35.2,67.6c-2.3,4.5-8.8,4.5-11.1,0l-35.2-67.6c-2.2-4.2.8-9.2,5.6-9.2h70.4c4.7,0,7.7,5,5.6,9.2Z"/>
    <path class="st0" d="M612.2,0h-70.4c-4.7,0-7.7,5-5.6,9.2l35.2,67.6c2.3,4.5,8.8,4.5,11.1,0l35.2-67.6c2.2-4.2-.8-9.2-5.6-9.2Z"/>
    <path class="st1" d="M594.9,144.9h70.4c4.7,0,7.7-5,5.6-9.2l-35.2-67.6c-2.3-4.5-8.8-4.5-11.1,0l-35.2,67.6c-2.2,4.2.9,9.2,5.6,9.2Z"/>
    <path class="st0" d="M488.5,144.9h70.4c4.7,0,7.7-5,5.6-9.2l-35.2-67.6c-2.3-4.5-8.8-4.5-11.1,0l-35.2,67.6c-2.2,4.2.9,9.2,5.6,9.2Z"/>
    <path class="st1" d="M382.2,144.9h70.4c4.7,0,7.7-5,5.6-9.2l-35.2-67.6c-2.3-4.5-8.8-4.5-11.1,0l-35.2,67.6c-2.2,4.2.9,9.2,5.6,9.2Z"/>
  </g>
  <path class="st0" d="M121.7,67.4h-11.7c-.8,0-1.3.7-.9,1.2l5.9,9c.4.6,1.5.6,1.9,0l5.9-9c.4-.6-.1-1.2-.9-1.2Z"/>
  <path class="st0" d="M111.4,67.4h-11.7c-.8,0-1.3.7-.9,1.2l5.9,9c.4.6,1.5.6,1.9,0l5.9-9c.4-.6-.1-1.2-.9-1.2Z"/>
  <path class="st0" d="M27.4,0h-11.7c-.8,0-1.3.7-.9,1.2l5.9,9c.4.6,1.5.6,1.9,0L28.3,1.3c.4-.6-.2-1.2-.9-1.2Z"/>
  <path class="st0" d="M160.9,0h-11.7c-.8,0-1.3.7-.9,1.2l5.9,9c.4.6,1.5.6,1.9,0l5.9-9c.4-.6-.1-1.2-.9-1.2Z"/>
  <path class="st0" d="M17.2,0H5.5c-.8,0-1.3.7-.9,1.2l5.9,9c.4.6,1.5.6,1.9,0L18.1,1.3c.4-.6-.1-1.2-.9-1.2Z"/>
  <path class="st0" d="M173.1,60.3h-.2c-2.8-.1-5.5-1-8.2-2.7-1.7-1.1-3.2-2.3-4.4-3.6l-.5-.5-.3.6c-2.2,4.1-6.2,6.1-12,6.1h-7.1c-2.8-.1-5.5-1-8.2-2.7-1.7-1.1-3.2-2.3-4.4-3.6l-.5-.5-.3.6c-2.2,4.1-6.2,6.1-12,6.1H39.3c-4.1,0-7.5-1.1-9.9-3.3-1.8-1.6-2.9-3.7-3.5-6.3v-.6c-.1,0-.7.3-.7.3-.8.4-1.8.9-2.9,1.3-2.8,1-5.1,1.6-7.1,1.6-2.9,0-5.4-.5-7.5-1.5-2.2-1-3.8-2.4-4.9-4-1-1.5-1.7-3.1-2.1-4.6-.4-1.5-.6-3-.6-4.5,0-3.3,1-6.5,2.9-9.5,1.9-2.9,4.2-5.3,7-7.1,2.7-1.8,5.6-3.2,8.6-4.3,3-1.1,5.9-1.6,8.5-1.6,3.9,0,6.5.2,8,.5l1.1.2v30.1c0,1.7.4,2.9,1.2,3.5.9.7,2.4,1,4.3,1h72.1c1.1,0,2-.2,2.7-.6.6-.4,1.1-1,1.4-1.8.4-1,.6-2,.7-2.8,0-.9.1-2.1.1-3.5v-13.4c0-2.2,1.2-4,3.5-5.6,2.2-1.4,4-2.1,5.7-2.1h1.5v25.2h0c.8,1.3,2,2.3,3.5,3.1,1.8,1,3.6,1.4,5.7,1.4h7.6c1.1,0,2-.2,2.7-.6.6-.4,1.1-1,1.4-1.8.4-1,.6-2,.7-2.8,0-.9.1-2.1.1-3.5v-13.4c0-2.2,1.2-4,3.5-5.6,2.2-1.4,4-2.1,5.7-2.1h1.5v25.2h0c.8,1.3,2,2.3,3.5,3.1,1.8,1,3.6,1.4,5.7,1.4h10.6V7.8c0-2.2,1.2-4,3.5-5.6,2.2-1.4,4-2.1,5.7-2.1h1.6l-1.4,46.2.9-1.1c1.4-1.8,3.3-4,5.6-6.5,3-3.3,6-6.5,9.2-9.4,3.2-3,6.8-5.7,10.7-7.9,4-2.3,7.7-3.4,11-3.4,7.2,0,12.9,1.8,17.1,5.3,4.2,3.6,6.4,8.5,6.4,14.8s-.9,7.4-2.8,10.4c-1.8,3-4.3,5.4-7.3,7.1-2.9,1.6-6.1,2.9-9.4,3.7-3.3.8-6.7,1.2-10.2,1.2h-49.2ZM228.8,24.3c-2.7,0-6.1,1.3-9.9,4-4,2.7-7.4,5.6-10.2,8.6-2.8,3-6,6.5-9.3,10.5-1.2,1.4-2.1,2.5-2.9,3.4l-.7.8h27.4c5.4,0,9.9-1.3,13.3-3.8,3.3-2.5,5-5.9,5-10.4s-1.1-7.3-3.3-9.6c-2.2-2.3-5.2-3.4-9.3-3.4ZM25,21.8c-2.9.5-5.9,2.3-8.9,5.1-3.6,3.6-5.4,7.5-5.4,11.9s.6,3.5,1.9,5c1.2,1.4,3.1,2.1,5.7,2.1s1.9-.2,4-1c1.2-.5,2.2-1,3-1.4h.2v-21.9h-.6Z"/>
  <path class="st0" d="M278.6,78.8c-6.6,0-12-1.2-16-3.5l-.7-.4v-.8c0-1.2.6-2.7,1.8-4.4,1.2-1.8,2.6-2.8,4.1-3.1l1-.2.5.9c.7,1.3,1.8,2.3,3.2,3,1.9,1,3,1.3,3.5,1.4,1,.1,1.9.2,2.6.2,2.5,0,4.7-.9,6.6-2.8,2-1.9,2.9-4,2.9-6.5v-2.3h-8.4c-6.1,0-11-2-14.4-5.9-3.4-3.8-5.1-8.5-5.1-13.9s1.9-12.5,5.7-17.5c3.9-5.1,9.1-7.7,15.5-7.7s10.3,1.9,13.2,5.5c2.8,3.5,4.3,8.1,4.3,13.6v17h6.1c2.5,0,5.4-.8,5.4-6.6V7.7c0-2.2,1.2-4,3.5-5.6,2.2-1.4,4-2.1,5.7-2.1h1.5v45.2c0,4.4-1,8-3,10.7-2.1,2.9-5.2,4.3-9.2,4.3h-10.3v.4c-.8,5.3-3,9.6-6.5,12.8-3.9,3.5-8.4,5.3-13.5,5.3ZM280.9,20.9c-1.8,0-3.4.5-4.7,1.4-1.4,1-2.3,2.3-3,3.9-.8,1.8-1.3,3.6-1.6,5.5-.4,1.9-.5,3.9-.5,5.8,0,4.9.8,8.5,2.5,10.7,1.6,2.1,4.1,3.2,7.7,3.2h7v-21.8c0-2.4-.6-4.5-2-6.3-1.2-1.7-2.9-2.5-5.3-2.5Z"/>
  <path class="st0" d="M331.8,59.1c0-41.9,0-46.4,0-47.7v-.5s0,0,0,0c0-2.7.3-4.7.8-6.2.6-1.9,1.6-3.2,3.1-3.9,1.3-.6,3.1-.9,5.4-.9h1.6v45.6c0,4.2-.9,7.6-2.6,10.1-1.8,2.6-4.2,4.1-7.2,4.5h-1.2c0,.1,0-1.1,0-1.1Z"/>
  <g>
    <path class="st0" d="M253.4,82.3h-11.9c-.8,0-1.3.7-.9,1.2l6,9.2c.4.6,1.5.6,1.9,0l6-9.2c.4-.6-.1-1.2-.9-1.2Z"/>
    <path class="st0" d="M50.3,145.2l-12.2-34.6-11.8,34.6h-3.9L5.7,97.6,0,81.1l1.2-.2c.7-.1,1.5-.2,2.2-.2,4.7,0,8.9,3,10.5,7.4l12.7,36.1,8-23.8-6.6-19v-.2c0,0,1.2-.2,1.2-.2.7-.1,1.5-.2,2.2-.2,4.7,0,8.9,3,10.5,7.4l6.6,19,6,17.2,14.2-41.9h7l-21.5,62.9h-3.9Z"/>
    <path class="st0" d="M88.6,145.2c-1.4,0-2.9-.2-4.4-.6-1.6-.4-3.2-1.2-4.7-2.2-1.6-1.1-2.8-2.5-3.8-4.4-1-1.8-1.5-4.1-1.5-6.8s1.2-6.7,3.7-8.7c2.3-1.9,5.3-3.3,9.1-4.1,3.6-.8,7.5-1.2,11.5-1.2h1.2v-.5c-.1-3-.5-5.3-1.1-7-.7-1.8-1.6-3.1-2.7-3.7-1.2-.7-2.5-1-4.1-1-2.2,0-4.1.5-5.5,1.4-1.4.8-2.3,2.5-2.9,5.1l-.3,1.2h-6.7v-1.5c0-1.6,0-3.1.3-4.5.2-1.7,1-3.2,2.4-4.6s3.4-2.3,6.3-2.8c2.6-.5,5.4-.7,8.1-.7s4.2.3,6.2.8c2.1.5,4,1.5,5.6,3,1.6,1.4,3,3.5,3.9,6.3.9,2.6,1.4,6.1,1.4,10.3v25.7h-6.7l-2.7-3.5-.4.3c-.9.8-2,1.5-3.4,2.3-2.2,1.2-5.1,1.7-8.8,1.7ZM98.4,123.8c-4.2,0-7.4.8-9.7,2.2-2.1,1.4-3.1,3-3.1,5.2s.7,4.2,2,5.3c1.5,1.2,3.1,1.7,5,1.7s3.2-.4,4.3-1.3c1-.9,1.9-1.8,2.7-2.9h0v-10.3h-1.2Z"/>
    <path class="st0" d="M161.9,145.2c-1.4,0-2.9-.2-4.5-.6-1.6-.4-3.2-1.2-4.7-2.2-1.6-1.1-2.8-2.6-3.8-4.4-1-1.8-1.5-4.1-1.5-6.8s1.2-6.7,3.7-8.7c2.3-1.9,5.3-3.3,9.1-4.1,3.6-.8,7.5-1.2,11.5-1.2h1.2v-.5c-.1-3-.5-5.3-1.1-7-.7-1.8-1.6-3.1-2.7-3.7-1.2-.7-2.5-1-4-1-2.2,0-4.1.5-5.5,1.4-1.4.8-2.3,2.5-2.9,5.1l-.3,1.2h-6.7v-1.5c0-1.6,0-3.1.3-4.5.2-1.7,1-3.2,2.4-4.6,1.4-1.4,3.4-2.3,6.3-2.8,2.6-.5,5.4-.7,8.1-.7s4.2.3,6.2.8c2.1.5,4,1.5,5.6,3,1.6,1.4,3,3.5,3.9,6.3.9,2.6,1.4,6.1,1.4,10.3v25.7h-6.7l-2.7-3.5-.4.3c-.9.8-2,1.5-3.4,2.3-2.3,1.2-5.1,1.8-8.8,1.8ZM171.7,123.8c-4.2,0-7.4.8-9.7,2.2-2.1,1.4-3.1,3-3.1,5.2s.7,4.2,2,5.3c1.5,1.2,3.1,1.7,5,1.7s3.2-.4,4.3-1.3c1-.9,1.9-1.8,2.7-2.9h0v-10.3h-1.2Z"/>
    <path class="st0" d="M221.6,144.3v-28.3c0-2.7-.4-4.9-1.2-6.4-.8-1.5-1.8-2.5-3-3.2-1.3-.7-2.6-1-4.1-1s-2.9.4-4.2,1.2c-1.2.7-2.2,1.6-3.1,2.5v.2c-.1,0-.1,35.1-.1,35.1h-11v-32.8c0-.4,0-12.2,0-12.2h1.5c2.6,0,4.5.4,5.9,1.1.7.4,1.4.9,1.9,1.5l.3.3.4-.2c1-.7,2.2-1.3,3.5-1.9,2.3-1.1,4.9-1.6,7.8-1.6s5.4.5,7.8,1.4c2.6,1,4.7,2.8,6.4,5.4,1.7,2.6,2.5,6.1,2.5,10.8v28.3h-11Z"/>
    <path class="st0" d="M243.2,144.3v-45h1.7c2.3,0,4.1.3,5.5.9,1.6.7,2.6,2.1,3.3,4,.5,1.7.8,4.1.8,7.2v32.8h-11.3Z"/>
    <path class="st0" d="M267,162.2v-5.7h1.5c2.4,0,4.5-.5,6.2-1.6,1.6-1,3.2-3.4,4.5-6.8l1.6-4.4-12.4-30.2-6.1-15.2h3.5c3,0,5.5.7,7.5,2.2,2,1.4,3.5,3.4,4.6,5.9l8.7,21.2,10.3-28.4h7.6l-18.2,49.9c-1.2,3.5-2.6,6-4,7.9-1.5,1.9-3.2,3.3-5.1,4-1.8.7-3.9,1.1-6.1,1.1h-4.2Z"/>
    <path class="st0" d="M321,145.2c-1.4,0-2.9-.2-4.5-.6-1.6-.4-3.2-1.2-4.7-2.2-1.6-1.1-2.9-2.6-3.8-4.4-1-1.8-1.5-4.1-1.5-6.8s1.2-6.7,3.7-8.7c2.3-1.9,5.3-3.3,9.1-4.1,3.6-.8,7.5-1.2,11.5-1.2h1.2v-.5c-.1-3-.5-5.3-1.1-7-.7-1.8-1.6-3.1-2.7-3.7-1.2-.7-2.5-1-4-1-2.2,0-4.1.5-5.5,1.4-1.4.8-2.3,2.5-2.9,5.1l-.3,1.2h-6.7v-1.5c0-1.6,0-3.1.3-4.5.2-1.7,1-3.2,2.4-4.6,1.4-1.4,3.4-2.3,6.3-2.8,2.6-.5,5.4-.7,8.1-.7s4.2.3,6.2.8c2.1.5,4,1.5,5.6,3,1.6,1.5,3,3.6,3.9,6.3.9,2.6,1.4,6.1,1.4,10.3v25.7h-6.7l-2.7-3.5-.4.3c-.9.8-2,1.5-3.4,2.3-2.3,1.2-5.2,1.8-8.8,1.8ZM330.9,123.8c-4.2,0-7.4.8-9.7,2.2-2.1,1.4-3.1,3-3.1,5.2s.7,4.2,2,5.3c1.5,1.2,3.1,1.7,5,1.7s3.2-.4,4.3-1.3c1-.9,1.9-1.8,2.6-2.9h0v-10.3h-1.2Z"/>
    <path class="st0" d="M133.5,144.8c-3.6,0-6.6-1.1-8.9-3.2-2.3-2.2-3.5-5.6-3.5-10.2v-25.8h-6.7v-5.8h6.7v-8.8s10.6,0,10.6,0v8.8h11.4v5.8h-11.4v25.8c0,2.6.5,4.6,1.5,5.8.9,1.2,2.3,1.8,4.2,1.8s2.8-.2,3.8-.5c1-.4,2-.8,2.9-1.3l.9-.5,1.8,3.6-.7.5c-1.1.8-2.5,1.7-4.4,2.6-1.9,1-4.6,1.4-8.2,1.4Z"/>
  </g>
</svg>