<?xml version="1.0" encoding="UTF-8"?><svg id="a" xmlns="http://www.w3.org/2000/svg" viewBox="0 0 19.67 19.67"><path d="M11.11,.89c-.17-.4-.51-.71-.94-.84-.63-.17-1.3,.14-1.59,.72-.47,.95-.72,2.02-.71,3.08V14.1s0,.04,0,.06l.88,4.57c.07,.53,.54,.94,1.07,.94h0c.54,0,1-.4,1.07-.92l.88-4.59s0-.04,0-.06V3.85c0-1.02-.24-2.05-.68-2.96Zm.03,13.17l-.88,4.56c-.03,.21-.21,.37-.43,.37s-.4-.16-.43-.39l-.88-4.54V3.87c0-.96,.22-1.92,.65-2.78,.15-.31,.51-.47,.82-.39,.23,.07,.42,.24,.53,.48,.4,.83,.62,1.76,.62,2.68V14.05h0Z" style="fill:#146394;"/><path d="M8.37,7.26c-.1-.06-.22-.06-.32,0L.17,11.52c-.11,.06-.17,.17-.17,.29v1.97c0,.11,.05,.21,.14,.27,.06,.04,.12,.06,.19,.06,.04,0,.08,0,.12-.02l7.87-2.95c.13-.05,.21-.17,.21-.31v-3.28c0-.12-.06-.22-.16-.28Zm-.49,3.33L.65,13.3v-1.3l7.22-3.91v2.5Z" style="fill:#146394;"/><path d="M19.5,11.52l-7.87-4.26c-.1-.05-.22-.05-.32,0-.1,.06-.16,.17-.16,.28v3.28c0,.14,.08,.26,.21,.31l7.87,2.95s.08,.02,.12,.02c.07,0,.13-.02,.19-.06,.09-.06,.14-.16,.14-.27v-1.97c0-.12-.07-.23-.17-.29Zm-.48,1.79l-7.22-2.71v-2.5l7.22,3.91v1.3Z" style="fill:#146394;"/><path d="M5.31,7.57c-.58-.04-1.05,.43-1.05,1v.95h.65v-.97c0-.16,.12-.31,.28-.33,.2-.03,.38,.13,.38,.32v.33h.65v-.33c0-.52-.4-.94-.91-.98Z" style="fill:#146394;"/><path d="M1.31,10.18v1h.65v-.99c0-.15,.1-.29,.25-.33,.21-.05,.4,.11,.4,.32h.65c0-.58-.48-1.04-1.05-1-.5,.04-.9,.5-.9,1Z" style="fill:#146394;"/><path d="M14.46,7.57c-.58-.04-1.05,.43-1.05,1v.3h.65v-.32c0-.16,.12-.31,.28-.33,.2-.03,.37,.13,.37,.32v.98h.65v-.98c0-.52-.4-.94-.91-.98Z" style="fill:#146394;"/><path d="M17.34,9.18c-.54,0-.98,.45-.98,1h.65c0-.21,.19-.37,.4-.32,.15,.03,.25,.17,.25,.33v.99h.65v-1c0-.55-.44-1-.98-1Z" style="fill:#146394;"/><path d="M9.11,18.36l-3.54,.59v-.74l3.11-1.87-.34-.56-3.27,1.96c-.1,.06-.16,.16-.16,.28v1.3c0,.06,.01,.11,.04,.16,.06,.11,.17,.17,.29,.17,.02,0,.04,0,.05,0l3.92-.65-.11-.64Z" style="fill:#146394;"/><path d="M14.55,17.75l-3.27-1.96-.34,.56,3.11,1.86v.74l-3.54-.59-.11,.64,3.92,.65s.04,0,.05,0c.08,0,.15-.03,.21-.08,.07-.06,.12-.15,.12-.25v-1.31c0-.11-.06-.22-.16-.28Z" style="fill:#146394;"/><path d="M10.56,2.51c-.11-.32-.41-.53-.75-.53-.35,0-.65,.23-.74,.55l-.22,.66,.62,.21,.23-.67c.02-.05,.06-.09,.12-.09,.06,0,.1,.04,.12,.09l.22,.67,.62-.21-.22-.67Z" style="fill:#146394;"/></svg>