<?xml version="1.0" encoding="UTF-8"?><svg id="a" xmlns="http://www.w3.org/2000/svg" viewBox="0 0 26.78 10.73"><g id="b"><path d="M11.13,4.01h1.77v.89h-1.77v-.89Z" style="fill:#146394;"/><path d="M26.4,2.69l-3.03-.43c-.55-.34-1.13-.64-1.72-.91C19.7,.46,17.58,0,15.43,0h-.53c-2.53,0-5.02,.64-7.25,1.85l-1.53,.84c-1.79,.02-3.55,.5-5.1,1.39C.39,4.44,0,5.11,0,5.84v2.66c0,.25,.2,.45,.45,.45H1.95c.49,1.39,2.01,2.13,3.4,1.64,.77-.27,1.37-.87,1.64-1.64h11.93c.49,1.39,2.01,2.13,3.4,1.64,.77-.27,1.37-.87,1.64-1.64h.16c.06,0,.11-.01,.17-.03l1.45-.58c.65-.26,1.07-.88,1.07-1.58V3.13c0-.22-.16-.41-.38-.44ZM6.19,8.38c-.2,.97-1.14,1.59-2.11,1.39-.97-.2-1.59-1.14-1.39-2.11,.2-.97,1.14-1.59,2.11-1.39,.83,.17,1.43,.9,1.43,1.75,0,.12-.01,.24-.04,.36Zm8.06-.37H7.1c0-1.48-1.2-2.68-2.68-2.68s-2.68,1.2-2.68,2.68H.84v-2.21c0-.41,.22-.79,.58-.99,1.46-.83,3.11-1.27,4.79-1.27H14.25v4.47Zm0-5.36H7.97l.09-.05c1.91-1.04,4.03-1.63,6.2-1.72v1.77Zm.89-1.77h.25c1.78,0,3.55,.34,5.21,1l-.77,.77h-4.68V.89Zm8.02,7.49c-.2,.97-1.14,1.59-2.11,1.39-.97-.2-1.59-1.14-1.39-2.11,.2-.97,1.14-1.59,2.11-1.39,.83,.17,1.43,.9,1.43,1.75,0,.12-.01,.24-.04,.36Zm2.74-4.37h-1.35v.89h1.35v1.82c0,.33-.2,.63-.51,.75l-1.29,.52s0-.08,0-.12,0-.09,0-.13c0-.04-.01-.09-.02-.13,0-.04-.01-.09-.02-.13,0-.04-.02-.09-.03-.13-.01-.04-.02-.09-.03-.13-.01-.04-.03-.08-.04-.12-.02-.04-.03-.08-.04-.12-.02-.04-.04-.08-.06-.11s-.04-.08-.06-.12c-.02-.04-.04-.07-.07-.11-.02-.04-.04-.08-.07-.11-.03-.04-.05-.07-.07-.1s-.05-.07-.08-.11-.06-.06-.08-.09c-.03-.03-.06-.07-.09-.1-.03-.03-.06-.06-.09-.08-.03-.03-.06-.06-.1-.09-.03-.03-.07-.05-.1-.08-.03-.03-.07-.05-.1-.08-.04-.02-.08-.04-.11-.07-.04-.03-.07-.04-.11-.06-.04-.02-.08-.04-.12-.06s-.07-.04-.11-.05c-.04-.02-.09-.03-.13-.05-.04-.02-.07-.03-.11-.04-.05-.02-.1-.03-.16-.04-.03,0-.07-.02-.1-.03-.06-.01-.11-.02-.17-.03-.03,0-.06-.01-.1-.01-.09,0-.18-.01-.27-.01-1.49,0-2.69,1.2-2.69,2.68h-3.59V3.54h4.93c.12,0,.23-.05,.32-.13l1.16-1.16c.49,.23,.96,.49,1.42,.78,.05,.03,.11,.05,.17,.06l2.75,.39v.53Z" style="fill:#146394;"/></g></svg>