<svg id="Layer_1" data-name="Layer 1" xmlns="http://www.w3.org/2000/svg" viewBox="0 0 75.3 83.16"><defs><style>.cls-1{opacity:0.5;}.cls-2{fill:#b8cbcd;}.cls-3{fill:#ffe888;}.cls-4{fill:#fff;}.cls-5{fill:#324654;}.cls-6{fill:#e8e8e8;}</style></defs><g class="cls-1"><path class="cls-2" d="M74.11,74.07c0,4.86-16.07,9.09-35.71,9.09S3,78.93,3,74.07s15.92-8.82,35.56-8.82S74.11,69.2,74.11,74.07Z"/></g><circle class="cls-3" cx="37.65" cy="37.65" r="34.54"/><circle class="cls-4" cx="37.65" cy="37.65" r="26.95"/><path class="cls-5" d="M37.65,40.63a1.49,1.49,0,0,1-1.49-1.49V25.71a1.49,1.49,0,0,1,3,0V39.14A1.49,1.49,0,0,1,37.65,40.63Z"/><path class="cls-5" d="M45.86,40.63H37.65a1.49,1.49,0,0,1,0-3h8.21a1.49,1.49,0,0,1,0,3Z"/><circle class="cls-5" cx="57.05" cy="39.14" r="1.49"/><circle class="cls-5" cx="17.51" cy="38.4" r="1.49"/><circle class="cls-5" cx="37.65" cy="57.05" r="1.49"/><path class="cls-6" d="M37.65,17.32A27,27,0,0,1,64.39,41a27.74,27.74,0,0,0,.21-3.31,27,27,0,1,0-53.9,0A27.74,27.74,0,0,0,10.91,41,27,27,0,0,1,37.65,17.32Z"/><circle class="cls-5" cx="37.65" cy="17.51" r="1.49"/><path class="cls-5" d="M37.65,75.3A37.65,37.65,0,1,1,75.3,37.65,37.69,37.69,0,0,1,37.65,75.3Zm0-71A33.39,33.39,0,1,0,71,37.65,33.43,33.43,0,0,0,37.65,4.26Z"/><path class="cls-5" d="M37.65,66.09A28.44,28.44,0,1,1,66.09,37.65,28.47,28.47,0,0,1,37.65,66.09Zm0-53.9A25.46,25.46,0,1,0,63.11,37.65,25.49,25.49,0,0,0,37.65,12.19Z"/></svg>