<svg id="Layer_1" data-name="Layer 1" xmlns="http://www.w3.org/2000/svg" viewBox="0 0 87.28 77.37"><defs><style>.cls-1{opacity:0.05;}.cls-2{fill:#156595;}.cls-3{fill:#00a669;}.cls-4{fill:#188c5d;}.cls-5{fill:none;stroke:#4f4f4f;stroke-miterlimit:10;stroke-width:3px;}</style></defs><g class="cls-1"><path class="cls-2" d="M87.16,69c0,4.64-19.35,8.41-43.2,8.41S.76,73.6.76,69,20.1,60.55,44,60.55,87.16,64.31,87.16,69Z" transform="translate(0)"/></g><path class="cls-3" d="M79.63,42.15C70.69,41.31,67.21,35,64,27.88a16,16,0,0,0-15-9.06c-5.85.24-9.64-5.87-13.65-9.3-7-6-16.41-10.28-25.7-4.2,2.88,4,2.57,8.55-2.78,9.3,8.19,12.84,21.42,33,28.38,40.69a22.06,22.06,0,0,0,20.3,7c2.32-2.31,5.5-3.05,8.7-3.19,5.76-.24,10.88-2.47,16.18-4.17,4.69-1.51,4.58-6,4.85-9.5S81.82,42.35,79.63,42.15Z" transform="translate(0)"/><path class="cls-4" d="M35.31,55.31c-7-7.65-20.19-27.85-28.38-40.69l-.38,0c-1.62.17-3.33-1-3.83,1.82-.36,2-1,3.47,1.65,4.52,1.2.49,2,2.3,2.67,3.66C11,33.07,19.66,39,20.2,49.28c.06,1.23,1.59,2.89,2.84,3.47,2.77,1.27,3.62,3.77,5,6.06,1.59,2.61,3.39,5.09,5.83,8.54a2,2,0,0,0,2.88.27c1.46-1.14,5.15,2.44,5.55.67,2.68.06,5.42-2,7.87-1.12,2.1.77,2.76-.86,3.77-2.64a9.46,9.46,0,0,1,1.65-2.18A22.06,22.06,0,0,1,35.31,55.31Z" transform="translate(0)"/><path class="cls-5" d="M80,41.9c-9.09-.85-12.62-7.29-15.87-14.49A16.24,16.24,0,0,0,48.91,18.2c-5.94.24-9.79-6-13.87-9.45C28,2.69,18.36-1.69,8.93,4.49c3,4.16,2.6,8.9-3.21,9.49-1.65.16-3.38-1-3.89,1.84-.37,2.05-1,3.53,1.68,4.59,1.21.5,2.05,2.34,2.71,3.73,4,8.53,12.82,14.52,13.37,25,.06,1.25,1.61,2.93,2.88,3.52,2.82,1.3,3.68,3.83,5.1,6.16C29.18,61.48,31,64,33.49,67.5a2,2,0,0,0,2.93.28c1.48-1.16,5.24,2.48,5.64.68,2.72.07,5.5-2,8-1.14,2.14.79,2.8-.87,3.83-2.68,2.32-4.13,6.41-5.28,10.52-5.46,5.85-.24,11-2.5,16.44-4.23,4.76-1.53,4.65-6.06,4.93-9.66S82.19,42.11,80,41.9Z" transform="translate(0)"/></svg>