<svg id="Layer_1" data-name="Layer 1" xmlns="http://www.w3.org/2000/svg" viewBox="0 0 83.17 88.98"><defs><style>.cls-1{fill:#156595;opacity:0.05;}.cls-2{fill:#fff;}.cls-3{fill:#324654;}.cls-4{fill:#ffe888;}</style></defs><path class="cls-1" d="M41.58,71.46c-19.72,0-35.7,4-35.7,8.85S21.82,89,41.54,89s35.73-3.79,35.73-8.67-16-8.85-35.69-8.85"/><path class="cls-2" d="M49.86,67s.87,8.31-6.79,8.45S31.8,71.88,32.55,70.38a13.09,13.09,0,0,0,.91-2.09s-3.4-1.85-1.53-4.12a32.51,32.51,0,0,1,3-3.27s3.25,3.51,6.93,2.19a67.38,67.38,0,0,0,7.82-3.56S53.81,64.19,49.86,67Z"/><path class="cls-3" d="M48.73,75.47c.45,2.23-2.21,4.65-5.95,5.41s-7.14-.42-7.6-2.64,2-2.11,5.71-2.88S48.27,73.25,48.73,75.47Z"/><path class="cls-3" d="M50.65,61.23a2.63,2.63,0,0,1,0,.47A2.41,2.41,0,0,1,50.27,63a6.5,6.5,0,0,1-2.57,2.11,16.58,16.58,0,0,1-4.76,1.49,21.54,21.54,0,0,1-3.48.3,10.89,10.89,0,0,1-4.5-.8,3.71,3.71,0,0,1-1.19-.84,2,2,0,0,1-.5-1,1.5,1.5,0,1,0-2.94.6,5,5,0,0,0,1.21,2.38,7.45,7.45,0,0,0,3.44,2,15.46,15.46,0,0,0,4.48.6,24.18,24.18,0,0,0,4-.35,17.51,17.51,0,0,0,7.12-2.67,8.33,8.33,0,0,0,2.24-2.27,5.49,5.49,0,0,0,.89-3,5.63,5.63,0,0,0-.11-1.07,1.5,1.5,0,0,0-2.93.6Z"/><path class="cls-4" d="M62,28.46a20.15,20.15,0,0,0-40.3,0c0,7.24,4.82,13.28,6,15.35a21,21,0,0,1,2.21,7.32c.52,6.51,5.35,12,12,12s11-5.35,12-12c.28-2,.84-5.25,2.21-7.32S62,35.7,62,28.46Z"/><path class="cls-2" d="M24.79,34.39A23.35,23.35,0,0,1,61.14,15a23.35,23.35,0,1,0-32.4,32.4A23.3,23.3,0,0,1,24.79,34.39Z"/><path class="cls-3" d="M33.36,57.88a6.59,6.59,0,0,0-1.86,1.51,7.28,7.28,0,0,0-1.21,1.92,7.58,7.58,0,0,0-.6,2.78,1.77,1.77,0,0,0,0,.23,8.28,8.28,0,0,0,1,3.85,9.26,9.26,0,0,0,1,1.57l1.72-1.45-1.68-1.5A5.19,5.19,0,0,0,31,68a6.43,6.43,0,0,0-.64,2.83,6.84,6.84,0,0,0,.18,1.58A6,6,0,0,0,31.89,75a8.39,8.39,0,0,0,3.58,2.33,13.73,13.73,0,0,0,4.57.74,17.51,17.51,0,0,0,3.48-.36A16.76,16.76,0,0,0,50.18,75a7.51,7.51,0,0,0,2.14-2.38,6.38,6.38,0,0,0,.79-3.13v-.27h0a5.79,5.79,0,0,0-.84-2.73,6.61,6.61,0,0,0-.81-1.07L49.86,67l1.4,1.75a7.07,7.07,0,0,0,1.43-1.63A8,8,0,0,0,54,62.72a5.56,5.56,0,0,0-.54-2.48,5.68,5.68,0,0,0-1.83-2.17,5.27,5.27,0,0,0-1.2-.65l-1.53,4.22.3-.82-.36.8.06,0,.3-.82-.36.8a1.45,1.45,0,0,1,.4.3,1.08,1.08,0,0,1,.18.29,1.22,1.22,0,0,1,.09.51,3.55,3.55,0,0,1-.59,2,3.12,3.12,0,0,1-.39.5l-.1.1h0l.16.19-.16-.19h0l.16.19-.16-.19,1,1.16-.94-1.18,0,0,1,1.16-.94-1.18-2,1.56,1.76,1.78.66-.65-.69.62,0,0,.66-.65-.69.62a1.4,1.4,0,0,1,.23.32,1.22,1.22,0,0,1,.16.52h0v.1a1.87,1.87,0,0,1-.24,1,2.64,2.64,0,0,1-.58.7,6.76,6.76,0,0,1-1.92,1.14,17.68,17.68,0,0,1-3.26,1,12.44,12.44,0,0,1-2.58.27,8.31,8.31,0,0,1-3.8-.79,3.25,3.25,0,0,1-1-.72,1.49,1.49,0,0,1-.35-.65,2.6,2.6,0,0,1-.07-.58,1.87,1.87,0,0,1,.2-.88,1.43,1.43,0,0,1,.1-.19h0L35,69.57l.2.17h0L35,69.57l.2.17L34,68.8l1.1,1,0-.05L34,68.8l1.1,1,1.3-1.46-1.26-1.49-.64.54.65-.53h0l-.64.54.65-.53a5.42,5.42,0,0,1-.55-.88,4,4,0,0,1-.46-1.65v-.07a3.11,3.11,0,0,1,.24-1.18,2.67,2.67,0,0,1,.7-1l.27-.21,0,0L35,61l.44.87,0,0L35,61l.44.87-2-4Z"/><path class="cls-3" d="M51.93,63.17a16.84,16.84,0,0,0,3.25-4.89,21.86,21.86,0,0,0,1.65-5.81,32.8,32.8,0,0,1,.7-3.61,11,11,0,0,1,1.31-3.27c.31-.48.92-1.33,1.61-2.4a38.25,38.25,0,0,0,3.34-6.38A24.23,24.23,0,0,0,65.59,28a23.74,23.74,0,0,0-47.48,0,25.21,25.21,0,0,0,3,11.26c.77,1.52,1.56,2.84,2.24,3.91.34.53.64,1,.9,1.39s.45.71.55.91a17.62,17.62,0,0,1,1.39,3.47,18.54,18.54,0,0,1,.69,3.42,16.77,16.77,0,0,0,5.33,11.1l3-3.34A12.29,12.29,0,0,1,31.33,52a23.61,23.61,0,0,0-.86-4.33,22.48,22.48,0,0,0-1.77-4.4c-.21-.36-.44-.72-.7-1.14-.47-.72-1-1.58-1.63-2.57a31.31,31.31,0,0,1-2.56-5.25A18.47,18.47,0,0,1,22.61,28a19.24,19.24,0,1,1,38.48,0,21.07,21.07,0,0,1-2.42,9.28,36.34,36.34,0,0,1-2,3.49c-.64,1-1.19,1.77-1.58,2.36a15.93,15.93,0,0,0-1.91,4.61,36.65,36.65,0,0,0-.79,4.12,17.5,17.5,0,0,1-1.31,4.61A12.12,12.12,0,0,1,48.72,60l3.21,3.15Z"/><path class="cls-3" d="M27.6,50.17A16.17,16.17,0,0,0,32,60.07a13.62,13.62,0,0,0,9.89,4.24,13.25,13.25,0,0,0,5.43-1.13,14,14,0,0,0,6-5.17,18.84,18.84,0,0,0,2.85-7.75,1.5,1.5,0,1,0-3-.43A15.06,15.06,0,0,1,49.41,58a10.38,10.38,0,0,1-3.35,2.4,10.18,10.18,0,0,1-4.21.87A10.56,10.56,0,0,1,34.12,58a13.14,13.14,0,0,1-3.54-8.06,1.49,1.49,0,1,0-3,.24Z"/><path class="cls-3" d="M46.78,62V40.63l4.91-10.85a1.51,1.51,0,0,0-1.36-2.12h-17a1.5,1.5,0,0,0-1.26.69,1.53,1.53,0,0,0-.1,1.44l5,10.85V62a1.5,1.5,0,0,0,3,0V40.31a1.52,1.52,0,0,0-.14-.63l-4.18-9H48l-4.09,9a1.64,1.64,0,0,0-.13.62V62a1.5,1.5,0,1,0,3,0Z"/><path class="cls-3" d="M8.52,28.35h-7a1.5,1.5,0,1,0,0,3h7a1.5,1.5,0,1,0,0-3"/><path class="cls-3" d="M81.67,28.35h-7a1.5,1.5,0,1,0,0,3h7a1.5,1.5,0,1,0,0-3"/><path class="cls-3" d="M19.27,5.41l-5-5a1.5,1.5,0,0,0-2.12,2.12l5,5a1.5,1.5,0,1,0,2.12-2.11"/><path class="cls-3" d="M71,57.13l-5-5a1.5,1.5,0,1,0-2.12,2.12l5,5A1.5,1.5,0,1,0,71,57.13"/><path class="cls-3" d="M66,7.52l5-5A1.5,1.5,0,1,0,68.87.44l-5,5A1.5,1.5,0,1,0,66,7.52"/><path class="cls-3" d="M14.3,59.25l5-5a1.5,1.5,0,1,0-2.12-2.12l-5,5a1.5,1.5,0,0,0,2.12,2.12"/></svg>